<svg version="1.1" width="392.217px" height="522.986px" viewBox="0 0 392.217 522.986" style="enable-background:new 0 0 392.217 522.986;" xml:space="preserve">
	<path style="fill:#F7CB59;" d="M130.888,0C58.708,0,0,58.806,0,130.994c0,8.956,0.921,17.674,2.636,26.124
		c12.114-59.679,64.7-104.78,127.955-104.78l0.181-0.016l0.116-0.023c115,0,209.081,93.659,209.081,209.194
		c0,107.389-80.929,195.877-185.153,207.822c-0.084,0.01-0.197,0.019-0.282,0.028c-0.753,0.085-1.522,0.167-2.278,0.244
		c-0.179,0.019-0.365,0.035-0.543,0.054c-0.664,0.065-1.332,0.129-1.997,0.189c-0.236,0.021-0.474,0.042-0.709,0.062
		c-0.61,0.054-1.222,0.104-1.833,0.151c-0.274,0.021-0.549,0.042-0.824,0.063c-0.576,0.043-1.152,0.083-1.729,0.121
		c-0.301,0.02-0.602,0.039-0.903,0.058c-0.555,0.034-1.11,0.065-1.666,0.096c-0.317,0.017-0.635,0.034-0.952,0.049
		c-0.546,0.027-1.093,0.051-1.64,0.073c-0.324,0.013-0.648,0.028-0.972,0.04c-0.552,0.021-1.105,0.036-1.658,0.052
		c-0.317,0.01-0.633,0.021-0.951,0.028c-0.593,0.015-1.188,0.024-1.782,0.033c-0.276,0.006-0.438,0.012-0.713,0.016
		c-0.868,0.01-1.495,0.016-2.495,0.016v0.007c0,0-0.512-0.007-0.742-0.009C67.198,470.358,14.84,425.553,2.77,366.091
		c-1.715,8.449-2.635,17.181-2.635,26.137c0,72.188,58.753,130.7,130.753,130.735l0,0v0.023c1,0,1.624-0.492,2.524-0.492
		c0.017,0,0.041,0,0.058,0c134.652-1,244.719-104.19,257.447-235.714c0.021,0.209,0.046,0.534,0.066,0.743
		c0.854-8.602,1.233-17.205,1.233-26.03c0-143.291-115.069-259.662-258.06-261.472C133.03,0.007,131.888,0,130.888,0"/>
	<path style="fill:#F8E1A4;" d="M130.22,470.59c0.211,0.002,0.112-0.096,0.315-0.096h0.482c0.592,0,0.825,0.056,1.415,0.051
		c30.38-0.403,58.251-11.082,80.255-28.807c29.786-23.953,48.847-60.661,48.847-101.865c0-72.21-58.487-130.713-130.697-130.713
		l0.051,0.035v0.007c-1,0-1.336-0.009-1.945-0.023c-0.205-0.005-0.467-0.012-0.672-0.019c-0.402-0.012-0.832-0.027-1.232-0.046
		c-0.246-0.011-0.506-0.023-0.752-0.037c-0.354-0.02-0.715-0.043-1.068-0.068c-0.266-0.019-0.537-0.035-0.802-0.056
		c-0.304-0.024-0.607-0.054-0.91-0.081c-0.651-0.06-1.302-0.125-1.949-0.201c-0.132-0.015-0.266-0.029-0.398-0.045
		c-0.451-0.055-0.9-0.114-1.348-0.176c-0.072-0.01-0.145-0.021-0.216-0.03c-29.153-4.146-53.263-24.414-62.843-51.517
		c-0.011,0.029-0.021,0.06-0.031,0.09c-2.912-8.205-4.503-17.036-4.503-26.239c0-41.636,37.499-78.431,78.554-78.431
		c-64.884,0-116.343,46.542-128.131,104.617c-1.711-8.431-2.628-17.185-2.632-26.12c0.031,71.955,58.141,129.675,130.018,130.675
		c0.008,0,0.017,0,0.025,0c0.221,0,0.577,0.001,0.577,0.001l0,0v-0.001c0,0,0.074,0,0.095,0h-0.008h-0.008h-0.004
		c-0.015,0,0.185,0,0.185,0v-0.005c0,0,1.126,0.009,1.743,0.023c0.174,0.004,0.291,0.011,0.464,0.016
		c0.463,0.014,0.896,0.031,1.357,0.053c0.169,0.008,0.324,0.017,0.493,0.026c0.537,0.028,1.065,0.062,1.599,0.102
		c0.07,0.005,0.136,0.009,0.206,0.015c40.47,3.11,72.468,36.939,72.468,78.215c0,43.323-35.33,78.444-78.33,78.447v0.006v0.005
		c-34-0.003-63.195-21.79-73.99-52.209c0.011-0.03-0.037-0.061-0.026-0.09c-2.892-8.18-4.448-16.979-4.448-26.149
		c0-43.323,35.464-78.445,78.464-78.448v-0.006c-63,0.03-116.008,44.938-128.118,104.597c12.07,59.462,64.436,104.22,127.383,104.548
		"/>
</svg>