<svg version="1.1" xmlns="http://www.w3.org/2000/svg" xmlns:xlink="http://www.w3.org/1999/xlink"
	 viewBox="0 0 1476.329 2000" style="enable-background:new 0 0 1476.329 2000;"
	 xml:space="preserve">
		<path style="fill:#F7CB59;" d="M1476.329,999.999c0-539.251-433.476-977.199-971.598-984.009
		c-4.237-0.054-8.481-0.081-12.731-0.081V16v0.001C220.36,16.13,0.31,236.332,0.31,508.003c0,33.703,3.453,66.726,9.907,98.522
		C55.807,381.932,254.16,213,492.208,213H492v-0.273c435,0,787.271,352.474,787.271,787.272
		c0,404.141-304.345,737.154-696.582,782.108c-0.316,0.036-0.634,0.069-0.95,0.105c-2.836,0.321-5.676,0.628-8.521,0.92
		c-0.672,0.068-1.346,0.133-2.02,0.2c-2.496,0.249-4.995,0.487-7.498,0.714c-0.888,0.08-1.776,0.156-2.665,0.233
		c-2.295,0.199-4.594,0.389-6.896,0.568c-1.033,0.081-2.067,0.159-3.101,0.236c-2.167,0.16-4.335,0.311-6.507,0.453
		c-1.132,0.074-2.264,0.148-3.397,0.219c-2.087,0.128-4.177,0.245-6.268,0.357c-1.194,0.063-2.388,0.13-3.583,0.188
		c-2.054,0.101-4.112,0.188-6.17,0.273c-1.22,0.05-2.438,0.104-3.66,0.149c-2.077,0.076-4.158,0.138-6.239,0.197
		c-1.193,0.034-2.384,0.075-3.579,0.104c-2.232,0.055-4.469,0.092-6.705,0.127c-1.038,0.018-2.074,0.043-3.113,0.055
		c-3.268,0.04-6.541,0.063-9.818,0.063v0.023c0,0-1.497-0.025-2.365-0.033c-236.891-1.229-434.054-169.849-479.479-393.624
		c-6.454,31.798-9.906,64.657-9.906,98.36c0,271.672,220.11,491.871,491.75,492V1984v0.089c4,0,7.025-0.03,10.414-0.063
		c0.063-0.001,0.125-0.003,0.188-0.004c506.744-5.341,920.947-392.998,968.847-887.966c0.08,0.785,0.17,1.567,0.248,2.353
		C1474.911,1066.039,1476.329,1033.213,1476.329,999.999z"/>
		<path style="fill:#F8E1A4;" d="M498.669,1787.093c114.329-1.516,219.219-41.882,302.03-108.585
		c112.093-90.148,183.825-228.383,183.825-383.45c0-271.752-220.536-491.963-492.286-491.963L492,803.181v0.024
		c-2.305,0-4.602-0.035-6.894-0.088c-0.772-0.018-1.542-0.045-2.313-0.069c-1.513-0.047-3.023-0.104-4.53-0.173
		c-0.927-0.042-1.854-0.088-2.779-0.139c-1.334-0.074-2.664-0.162-3.994-0.253c-1.002-0.069-2.007-0.132-3.006-0.211
		c-1.142-0.09-2.278-0.201-3.416-0.304c-2.452-0.224-4.897-0.472-7.332-0.756c-0.498-0.058-0.998-0.111-1.495-0.171
		c-1.696-0.207-3.387-0.428-5.074-0.664c-0.271-0.038-0.541-0.076-0.812-0.114c-109.712-15.602-200.447-91.876-236.501-193.877
		c-0.04,0.112-0.076,0.226-0.116,0.339c-10.96-30.878-16.946-64.112-16.946-98.748c0-156.692,122.113-284.848,276.31-294.606
		C243.609,222.129,54.566,388.121,10.201,606.677c-6.44-31.729-9.875-64.832-9.89-98.46
		c0.117,270.795,218.807,490.386,489.303,491.768c0.032,0,0.063,0.001,0.095,0.002c0.83,0.005,1.488,0.012,2.291,0.014v0v0.001
		c0.08,0,0.159-0.001,0.238-0.001h-0.03h-0.03h-0.017c-0.054,0-0.108-0.001-0.162-0.001v-0.017c2.336,0,4.664,0.035,6.987,0.089
		c0.655,0.015,1.308,0.04,1.961,0.059c1.743,0.052,3.482,0.117,5.217,0.199c0.636,0.03,1.272,0.061,1.907,0.095
		c2.02,0.108,4.036,0.234,6.045,0.383c0.262,0.02,0.526,0.035,0.788,0.055c152.301,11.704,272.301,139.015,272.301,294.349
		c0,163.042-132.207,295.215-295.207,295.227v0.023v0.017c-127.874-0.009-237.398-82.003-278.022-196.481
		c0.04-0.112,0.076-0.226,0.116-0.338c-10.881-30.782-17.061-63.899-17.061-98.409c0-163.042,131.968-295.215,294.968-295.227
		v-0.021c-237.943,0.113-436.268,169.118-481.844,393.636c45.424,223.775,242.827,392.396,479.717,393.624"/>
</svg>